STARTFONT 2.1
FONT -------18-180-75-75----
SIZE 18 75 75
FONTBOUNDINGBOX 18 18 0 0
STARTPROPERTIES 6
FONT_ASCENT 18
FONT_DESCENT 0
PIXEL_SIZE 18
POINT_SIZE 180
RESOLUTION_X 75
RESOLUTION_Y 75
ENDPROPERTIES
CHARS 6
STARTCHAR N
ENCODING 78
SWIDTH 0 0
DWIDTH 18 0
BBX 18 18 0 0
BITMAP
FFFFC0
FFFFC0
FFFFC0
FFBFC0
FF3FC0
FE3FC0
FC3FC0
FF3FC0
FF3FC0
FF3FC0
FF3FC0
FF3FC0
FF3FC0
FF3FC0
FC0FC0
FFFFC0
FFFFC0
FFFFC0
ENDCHAR
STARTCHAR C
ENCODING 67
SWIDTH 0 0
DWIDTH 18 0
BBX 18 18 0 0
BITMAP
FFFFC0
FFFFC0
FFFFC0
FF3FC0
FE1FC0
FEDFC0
FCCFC0
FCCFC0
FDEFC0
F9E7C0
F807C0
F1E3C0
F3F3C0
F3F3C0
FFFFC0
FFFFC0
FFFFC0
FFFFC0
ENDCHAR
STARTCHAR S
ENCODING 83
SWIDTH 0 0
DWIDTH 18 0
BBX 18 18 0 0
BITMAP
FFFFC0
FFFFC0
FFFFC0
FF3FC0
FE1FC0
FC0FC0
FF3FC0
FF3FC0
FF3FC0
FF3FC0
FF3FC0
FF3FC0
FC0FC0
FE1FC0
FF3FC0
FFFFC0
FFFFC0
FFFFC0
ENDCHAR
STARTCHAR n
ENCODING 110
SWIDTH 0 0
DWIDTH 18 0
BBX 18 18 0 0
BITMAP
AAAA80
000040
800000
004040
808000
014040
828000
004040
808000
004040
808000
004040
808000
004040
82A000
000040
800000
555540
ENDCHAR
STARTCHAR c
ENCODING 99
SWIDTH 0 0
DWIDTH 18 0
BBX 18 18 0 0
BITMAP
AAAA80
000040
800000
000040
80C000
012040
821000
012040
821000
040840
82D000
040840
880400
040840
800000
000040
800000
555540
ENDCHAR
STARTCHAR s
ENCODING 115
SWIDTH 0 0
DWIDTH 18 0
BBX 18 18 0 0
BITMAP
AAAA80
000040
800000
00C040
814000
02B040
804000
008040
804000
008040
804000
008040
835000
00A040
80C000
000040
800000
555540
ENDCHAR
ENDFONT
