STARTFONT 2.1
FONT -------14-140-75-75----
SIZE 14 75 75
FONTBOUNDINGBOX 14 14 0 0
STARTPROPERTIES 6
FONT_ASCENT 14
FONT_DESCENT 0
PIXEL_SIZE 14
POINT_SIZE 140
RESOLUTION_X 75
RESOLUTION_Y 75
ENDPROPERTIES
CHARS 20
STARTCHAR A
ENCODING 65
SWIDTH 0 0
DWIDTH 14 0
BBX 14 14 0 0
BITMAP
FFFC
FFFC
F03C
E31C
E79C
E71C
E69C
E59C
E39C
E79C
E31C
F03C
FFFC
FFFC
ENDCHAR
STARTCHAR B
ENCODING 66
SWIDTH 0 0
DWIDTH 14 0
BBX 14 14 0 0
BITMAP
FFFC
FFFC
FEFC
FCFC
F8FC
FCFC
FCFC
FCFC
FCFC
FCFC
FCFC
F87C
FFFC
FFFC
ENDCHAR
STARTCHAR C
ENCODING 67
SWIDTH 0 0
DWIDTH 14 0
BBX 14 14 0 0
BITMAP
FFFC
FFFC
F03C
E31C
E79C
FF1C
FE3C
FC7C
F8FC
F1FC
E3FC
E01C
FFFC
FFFC
ENDCHAR
STARTCHAR D
ENCODING 68
SWIDTH 0 0
DWIDTH 14 0
BBX 14 14 0 0
BITMAP
FFFC
FFFC
F03C
E71C
FF9C
FF1C
F03C
FF1C
FF9C
FF9C
E31C
F03C
FFFC
FFFC
ENDCHAR
STARTCHAR E
ENCODING 69
SWIDTH 0 0
DWIDTH 14 0
BBX 14 14 0 0
BITMAP
FFFC
FFFC
FE3C
FC3C
F83C
F13C
E33C
C73C
CF3C
C01C
FF3C
FF3C
FFFC
FFFC
ENDCHAR
STARTCHAR F
ENCODING 70
SWIDTH 0 0
DWIDTH 14 0
BBX 14 14 0 0
BITMAP
FFFC
FFFC
E01C
E01C
E7FC
E7FC
E03C
FF1C
FF9C
FF9C
E31C
F03C
FFFC
FFFC
ENDCHAR
STARTCHAR G
ENCODING 71
SWIDTH 0 0
DWIDTH 14 0
BBX 14 14 0 0
BITMAP
FFFC
FFFC
FE3C
F83C
F0FC
E3FC
E03C
E31C
E79C
E79C
E31C
F03C
FFFC
FFFC
ENDCHAR
STARTCHAR H
ENCODING 72
SWIDTH 0 0
DWIDTH 14 0
BBX 14 14 0 0
BITMAP
FFFC
FFFC
E01C
E01C
FF1C
FF3C
FE3C
FE7C
FC7C
FCFC
F8FC
F9FC
FFFC
FFFC
ENDCHAR
STARTCHAR I
ENCODING 73
SWIDTH 0 0
DWIDTH 14 0
BBX 14 14 0 0
BITMAP
FFFC
FFFC
F03C
E31C
E79C
E31C
F03C
E31C
E79C
E79C
E31C
F03C
FFFC
FFFC
ENDCHAR
STARTCHAR J
ENCODING 74
SWIDTH 0 0
DWIDTH 14 0
BBX 14 14 0 0
BITMAP
FFFC
FFFC
F03C
E31C
E79C
E79C
E31C
F01C
FF9C
FF1C
F03C
F07C
FFFC
FFFC
ENDCHAR
STARTCHAR a
ENCODING 97
SWIDTH 0 0
DWIDTH 14 0
BBX 14 14 0 0
BITMAP
0000
0000
0FC0
1CE0
1860
18E0
1960
1A60
1C60
1860
1CE0
0FC0
0000
0000
ENDCHAR
STARTCHAR b
ENCODING 98
SWIDTH 0 0
DWIDTH 14 0
BBX 14 14 0 0
BITMAP
0000
0000
0100
0300
0700
0300
0300
0300
0300
0300
0300
0780
0000
0000
ENDCHAR
STARTCHAR c
ENCODING 99
SWIDTH 0 0
DWIDTH 14 0
BBX 14 14 0 0
BITMAP
0000
0000
0FC0
1CE0
1860
00E0
01C0
0380
0700
0E00
1C00
1FE0
0000
0000
ENDCHAR
STARTCHAR d
ENCODING 100
SWIDTH 0 0
DWIDTH 14 0
BBX 14 14 0 0
BITMAP
0000
0000
0FC0
18E0
0060
00E0
0FC0
00E0
0060
0060
1CE0
0FC0
0000
0000
ENDCHAR
STARTCHAR e
ENCODING 101
SWIDTH 0 0
DWIDTH 14 0
BBX 14 14 0 0
BITMAP
0000
0000
01C0
03C0
07C0
0EC0
1CC0
38C0
30C0
3FE0
00C0
00C0
0000
0000
ENDCHAR
STARTCHAR f
ENCODING 102
SWIDTH 0 0
DWIDTH 14 0
BBX 14 14 0 0
BITMAP
0000
0000
1FE0
1FE0
1800
1800
1FC0
00E0
0060
0060
1CE0
0FC0
0000
0000
ENDCHAR
STARTCHAR g
ENCODING 103
SWIDTH 0 0
DWIDTH 14 0
BBX 14 14 0 0
BITMAP
0000
0000
01C0
07C0
0F00
1C00
1FC0
1CE0
1860
1860
1CE0
0FC0
0000
0000
ENDCHAR
STARTCHAR h
ENCODING 104
SWIDTH 0 0
DWIDTH 14 0
BBX 14 14 0 0
BITMAP
0000
0000
1FE0
1FE0
00E0
00C0
01C0
0180
0380
0300
0700
0600
0000
0000
ENDCHAR
STARTCHAR i
ENCODING 105
SWIDTH 0 0
DWIDTH 14 0
BBX 14 14 0 0
BITMAP
0000
0000
0FC0
1CE0
1860
1CE0
0FC0
1CE0
1860
1860
1CE0
0FC0
0000
0000
ENDCHAR
STARTCHAR j
ENCODING 106
SWIDTH 0 0
DWIDTH 14 0
BBX 14 14 0 0
BITMAP
0000
0000
0FC0
1CE0
1860
1860
1CE0
0FE0
0060
00E0
0FC0
0F80
0000
0000
ENDCHAR
ENDFONT
