STARTFONT 2.1
FONT -------12-120-75-75----
SIZE 12 75 75
FONTBOUNDINGBOX 12 12 0 0
STARTPROPERTIES 6
FONT_ASCENT 12
FONT_DESCENT 0
PIXEL_SIZE 12
POINT_SIZE 120
RESOLUTION_X 75
RESOLUTION_Y 75
ENDPROPERTIES
CHARS 20
STARTCHAR A
ENCODING 65
SWIDTH 0 0
DWIDTH 12 0
BBX 12 12 0 0
BITMAP
FFF0
FFF0
F0F0
E670
E670
E470
E270
E670
E670
F0F0
FFF0
FFF0
ENDCHAR
STARTCHAR B
ENCODING 66
SWIDTH 0 0
DWIDTH 12 0
BBX 12 12 0 0
BITMAP
FFF0
FFF0
FDF0
F9F0
F1F0
F9F0
F9F0
F9F0
F9F0
F0F0
FFF0
FFF0
ENDCHAR
STARTCHAR C
ENCODING 67
SWIDTH 0 0
DWIDTH 12 0
BBX 12 12 0 0
BITMAP
FFF0
FFF0
F0F0
E670
EE70
FCF0
F9F0
F3F0
E7F0
E070
FFF0
FFF0
ENDCHAR
STARTCHAR D
ENCODING 68
SWIDTH 0 0
DWIDTH 12 0
BBX 12 12 0 0
BITMAP
FFF0
FFF0
F0F0
EE70
FE70
F8F0
FE70
FE70
EE70
F0F0
FFF0
FFF0
ENDCHAR
STARTCHAR E
ENCODING 69
SWIDTH 0 0
DWIDTH 12 0
BBX 12 12 0 0
BITMAP
FFF0
FFF0
FCF0
F8F0
F0F0
E4F0
ECF0
E070
FCF0
FCF0
FFF0
FFF0
ENDCHAR
STARTCHAR F
ENCODING 70
SWIDTH 0 0
DWIDTH 12 0
BBX 12 12 0 0
BITMAP
FFF0
FFF0
E070
E7F0
E7F0
E0F0
FE70
FE70
FE70
E0F0
FFF0
FFF0
ENDCHAR
STARTCHAR G
ENCODING 71
SWIDTH 0 0
DWIDTH 12 0
BBX 12 12 0 0
BITMAP
FFF0
FFF0
F8F0
F3F0
E7F0
E0F0
E670
E670
E670
F0F0
FFF0
FFF0
ENDCHAR
STARTCHAR H
ENCODING 72
SWIDTH 0 0
DWIDTH 12 0
BBX 12 12 0 0
BITMAP
FFF0
FFF0
E070
FE70
FCF0
FCF0
F9F0
F9F0
F3F0
F3F0
FFF0
FFF0
ENDCHAR
STARTCHAR I
ENCODING 73
SWIDTH 0 0
DWIDTH 12 0
BBX 12 12 0 0
BITMAP
FFF0
FFF0
F0F0
E670
E670
F0F0
E670
E670
E670
F0F0
FFF0
FFF0
ENDCHAR
STARTCHAR J
ENCODING 74
SWIDTH 0 0
DWIDTH 12 0
BBX 12 12 0 0
BITMAP
FFF0
FFF0
F0F0
E670
E670
E670
F070
FE70
FCF0
F1F0
FFF0
FFF0
ENDCHAR
STARTCHAR a
ENCODING 97
SWIDTH 0 0
DWIDTH 12 0
BBX 12 12 0 0
BITMAP
0000
0000
0F00
1980
1980
1B80
1D80
1980
1980
0F00
0000
0000
ENDCHAR
STARTCHAR b
ENCODING 98
SWIDTH 0 0
DWIDTH 12 0
BBX 12 12 0 0
BITMAP
0000
0000
0200
0600
0E00
0600
0600
0600
0600
0F00
0000
0000
ENDCHAR
STARTCHAR c
ENCODING 99
SWIDTH 0 0
DWIDTH 12 0
BBX 12 12 0 0
BITMAP
0000
0000
0F00
1980
1180
0300
0600
0C00
1800
1F80
0000
0000
ENDCHAR
STARTCHAR d
ENCODING 100
SWIDTH 0 0
DWIDTH 12 0
BBX 12 12 0 0
BITMAP
0000
0000
0F00
1180
0180
0700
0180
0180
1180
0F00
0000
0000
ENDCHAR
STARTCHAR e
ENCODING 101
SWIDTH 0 0
DWIDTH 12 0
BBX 12 12 0 0
BITMAP
0000
0000
0300
0700
0F00
1B00
1300
1F80
0300
0300
0000
0000
ENDCHAR
STARTCHAR f
ENCODING 102
SWIDTH 0 0
DWIDTH 12 0
BBX 12 12 0 0
BITMAP
0000
0000
1F80
1800
1800
1F00
0180
0180
0180
1F00
0000
0000
ENDCHAR
STARTCHAR g
ENCODING 103
SWIDTH 0 0
DWIDTH 12 0
BBX 12 12 0 0
BITMAP
0000
0000
0700
0C00
1800
1F00
1980
1980
1980
0F00
0000
0000
ENDCHAR
STARTCHAR h
ENCODING 104
SWIDTH 0 0
DWIDTH 12 0
BBX 12 12 0 0
BITMAP
0000
0000
1F80
0180
0300
0300
0600
0600
0C00
0C00
0000
0000
ENDCHAR
STARTCHAR i
ENCODING 105
SWIDTH 0 0
DWIDTH 12 0
BBX 12 12 0 0
BITMAP
0000
0000
0F00
1980
1980
0F00
1980
1980
1980
0F00
0000
0000
ENDCHAR
STARTCHAR j
ENCODING 106
SWIDTH 0 0
DWIDTH 12 0
BBX 12 12 0 0
BITMAP
0000
0000
0F00
1980
1980
1980
0F80
0180
0300
0E00
0000
0000
ENDCHAR
ENDFONT
